<?xml version="1.0" encoding="utf-8"?>
<!-- Generator: Adobe Illustrator 21.1.0, SVG Export Plug-In . SVG Version: 6.00 Build 0)  -->
<svg version="1.1" id="Слой_1" xmlns="http://www.w3.org/2000/svg" xmlns:xlink="http://www.w3.org/1999/xlink" x="0px" y="0px"
	 viewBox="0 0 282.3 294.1" style="enable-background:new 0 0 282.3 294.1;" xml:space="preserve">
<style type="text/css">
	.st0{fill:#D6D6D6;}
	.st1{fill:none;stroke:#6D6E71;stroke-width:1.2;stroke-miterlimit:10;}
	.st2{fill:none;stroke:#6D6E71;stroke-width:0.9;stroke-miterlimit:10;}
	.st3{fill:none;stroke:#6D6E71;stroke-width:0.6;stroke-miterlimit:10;}
	.st4{fill:#B1B3B6;stroke:#6D6E71;stroke-width:0.9;stroke-miterlimit:10;}
	.st5{fill:#DADBDC;stroke:#6D6E71;stroke-width:0.7;stroke-miterlimit:10;}
	.st6{fill:none;stroke:#6D6E71;stroke-width:0.7;stroke-miterlimit:10;}
	.st7{fill:#B1B3B6;stroke:#6D6E71;stroke-width:0.7;stroke-miterlimit:10;}
	.st8{fill:#DADBDC;stroke:#6D6E71;stroke-width:0.6602;stroke-miterlimit:10;}
	.st9{fill:#B1B3B6;}
	.st10{fill:#DADBDC;}
	.st11{fill:#F1F2F2;}
	.st12{fill:none;stroke:#6D6E71;stroke-width:0.4;stroke-miterlimit:10;}
	.st13{fill:none;}
	.st14{fill:#4D4D4D;}
	.st15{fill:#B1B3B6;stroke:#6D6E71;stroke-width:0.6226;stroke-miterlimit:10;}
	.st16{fill:#A6A6A6;}
</style>
<path class="st0" d="M109,249.9v9.9H92.5v-9.9H2.3v43.2h274.2v-43.2H109z M63,277.1h-7.8v-19.2H63V277.1z M79.4,277.1h-7.8v-19.2
	h7.8V277.1z M170.3,277.1h-7.8v-19.2h7.8V277.1z M223.5,277H207v-19.2h16.5V277z"/>
<polyline class="st1" points="152.6,9.6 276.5,9.6 276.5,239.3 "/>
<polyline class="st1" points="276.5,239.3 276.5,293.1 2.3,293.1 2.3,9.6 126.6,9.6 "/>
<g>
	<rect x="207" y="224.8" class="st2" width="16.5" height="19.2"/>
	<line class="st3" x1="215.2" y1="224.8" x2="215.2" y2="244.2"/>
	<line class="st3" x1="207" y1="230.4" x2="223.5" y2="230.4"/>
</g>
<line class="st3" x1="215.2" y1="257.8" x2="215.2" y2="277.2"/>
<line class="st3" x1="207" y1="263.5" x2="223.5" y2="263.5"/>
<g>
	<rect x="131.2" y="224.8" class="st2" width="16.5" height="19.2"/>
	<line class="st3" x1="139.5" y1="224.8" x2="139.5" y2="244.2"/>
	<line class="st3" x1="131.2" y1="230.4" x2="147.7" y2="230.4"/>
</g>
<g>
	<rect x="92.5" y="240.7" class="st2" width="16.5" height="19.2"/>
	<line class="st3" x1="100.7" y1="240.7" x2="100.7" y2="260.1"/>
	<line class="st3" x1="92.5" y1="246.3" x2="109" y2="246.3"/>
</g>
<g>
	<rect x="240.7" y="224.8" class="st2" width="16.5" height="19.2"/>
	<g>
		<line class="st3" x1="249" y1="224.8" x2="249" y2="244.2"/>
		<line class="st3" x1="240.7" y1="230.4" x2="257.2" y2="230.4"/>
	</g>
</g>
<g>
	<rect x="240.7" y="257.8" class="st4" width="16.5" height="35.3"/>
	<line class="st3" x1="249" y1="257.8" x2="249" y2="263.6"/>
	<line class="st2" x1="246.5" y1="263.3" x2="246.5" y2="292.9"/>
	<line class="st2" x1="240.7" y1="263.5" x2="257.2" y2="263.5"/>
	<line class="st2" x1="240.7" y1="281.3" x2="257.2" y2="281.3"/>
</g>
<g>
	<rect x="21.1" y="257.8" class="st4" width="16.5" height="35.3"/>
	<line class="st3" x1="29.4" y1="257.8" x2="29.4" y2="263.6"/>
	<line class="st2" x1="26.9" y1="263.3" x2="26.9" y2="292.9"/>
	<line class="st2" x1="21.1" y1="263.5" x2="37.6" y2="263.5"/>
	<line class="st2" x1="21.1" y1="281.3" x2="37.6" y2="281.3"/>
</g>
<g>
	<rect x="138.4" y="257.8" class="st4" width="16.5" height="35.3"/>
	<line class="st3" x1="146.7" y1="257.8" x2="146.7" y2="263.6"/>
	<line class="st2" x1="144.2" y1="263.3" x2="144.2" y2="292.9"/>
	<line class="st2" x1="138.4" y1="263.5" x2="154.9" y2="263.5"/>
	<line class="st2" x1="138.4" y1="281.3" x2="154.9" y2="281.3"/>
</g>
<g>
	<rect x="166.2" y="224.8" class="st2" width="21.8" height="19.2"/>
	<line class="st3" x1="166.2" y1="230.4" x2="188" y2="230.4"/>
	<line class="st3" x1="173.5" y1="224.8" x2="173.5" y2="243.9"/>
	<line class="st3" x1="180.8" y1="224.8" x2="180.8" y2="243.9"/>
</g>
<g>
	<rect x="71.6" y="224.8" class="st2" width="7.8" height="19.2"/>
	<line class="st3" x1="71.2" y1="230.4" x2="79.4" y2="230.4"/>
</g>
<g>
	<rect x="55.3" y="224.8" class="st2" width="7.8" height="19.2"/>
	<line class="st3" x1="55.1" y1="230.4" x2="63.2" y2="230.4"/>
</g>
<g>
	<rect x="18.5" y="224.8" class="st2" width="21.8" height="19.2"/>
	<line class="st3" x1="18.5" y1="230.4" x2="40.3" y2="230.4"/>
	<line class="st3" x1="25.8" y1="224.8" x2="25.8" y2="243.9"/>
	<line class="st3" x1="33" y1="224.8" x2="33" y2="243.9"/>
</g>
<g>
	<polyline class="st2" points="131.1,110 131.1,97.2 147.6,97.2 147.6,110 	"/>
	<line class="st3" x1="139.4" y1="97.2" x2="139.4" y2="110.3"/>
	<line class="st3" x1="131.1" y1="102.9" x2="147.6" y2="102.9"/>
</g>
<g>
	<polyline class="st2" points="131.1,141.8 131.1,129 147.6,129 147.6,141.8 	"/>
	<line class="st3" x1="139.4" y1="129" x2="139.4" y2="142"/>
	<line class="st3" x1="131.1" y1="134.7" x2="147.6" y2="134.7"/>
</g>
<g>
	<polyline class="st2" points="131.1,173.7 131.1,160.9 147.6,160.9 147.6,173.7 	"/>
	<line class="st3" x1="139.4" y1="160.9" x2="139.4" y2="173.9"/>
	<line class="st3" x1="131.1" y1="166.5" x2="147.6" y2="166.5"/>
</g>
<g>
	<polyline class="st2" points="131.1,205.5 131.1,192.8 147.6,192.8 147.6,205.5 	"/>
	<line class="st3" x1="139.4" y1="192.8" x2="139.4" y2="205.8"/>
	<line class="st3" x1="131.1" y1="198.4" x2="147.6" y2="198.4"/>
</g>
<g>
	<g>
		<polyline class="st2" points="207,205.5 207,192.8 223.5,192.8 223.5,205.5 		"/>
		<line class="st3" x1="215.2" y1="192.8" x2="215.2" y2="205.8"/>
		<line class="st3" x1="207" y1="198.4" x2="223.5" y2="198.4"/>
	</g>
	<g>
		<polyline class="st2" points="240.7,205.5 240.7,192.8 257.2,192.8 257.2,205.5 		"/>
		<line class="st3" x1="249" y1="192.8" x2="249" y2="205.8"/>
		<line class="st3" x1="240.7" y1="198.4" x2="257.2" y2="198.4"/>
	</g>
</g>
<g>
	<g>
		<polyline class="st2" points="207,173.7 207,160.9 223.5,160.9 223.5,173.7 		"/>
		<line class="st3" x1="215.2" y1="160.9" x2="215.2" y2="173.9"/>
		<line class="st3" x1="207" y1="166.5" x2="223.5" y2="166.5"/>
	</g>
	<g>
		<polyline class="st2" points="240.7,173.7 240.7,160.9 257.2,160.9 257.2,173.7 		"/>
		<line class="st3" x1="249" y1="160.9" x2="249" y2="173.9"/>
		<line class="st3" x1="240.7" y1="166.5" x2="257.2" y2="166.5"/>
	</g>
</g>
<g>
	<g>
		<polyline class="st2" points="207,141.8 207,129 223.5,129 223.5,141.8 		"/>
		<line class="st3" x1="215.2" y1="129" x2="215.2" y2="142"/>
		<line class="st3" x1="207" y1="134.7" x2="223.5" y2="134.7"/>
	</g>
	<g>
		<polyline class="st2" points="240.7,141.8 240.7,129 257.2,129 257.2,141.8 		"/>
		<line class="st3" x1="249" y1="129" x2="249" y2="142"/>
		<line class="st3" x1="240.7" y1="134.7" x2="257.2" y2="134.7"/>
	</g>
</g>
<g>
	<g>
		<polyline class="st2" points="207,109.9 207,97.1 223.5,97.1 223.5,109.9 		"/>
		<line class="st3" x1="215.2" y1="97.1" x2="215.2" y2="110.1"/>
		<line class="st3" x1="207" y1="102.8" x2="223.5" y2="102.8"/>
	</g>
	<g>
		<polyline class="st2" points="240.7,109.9 240.7,97.1 257.2,97.1 257.2,109.9 		"/>
		<line class="st3" x1="249" y1="97.1" x2="249" y2="110.1"/>
		<line class="st3" x1="240.7" y1="102.8" x2="257.2" y2="102.8"/>
	</g>
</g>
<g>
	<g>
		<polyline class="st2" points="207,78 207,65.2 223.5,65.2 223.5,78 		"/>
		<line class="st3" x1="215.2" y1="65.2" x2="215.2" y2="78.3"/>
		<line class="st3" x1="207" y1="70.9" x2="223.5" y2="70.9"/>
	</g>
	<g>
		<polyline class="st2" points="240.7,78 240.7,65.2 257.2,65.2 257.2,78 		"/>
		<line class="st3" x1="249" y1="65.2" x2="249" y2="78.3"/>
		<line class="st3" x1="240.7" y1="70.9" x2="257.2" y2="70.9"/>
	</g>
</g>
<g>
	<g>
		<polyline class="st2" points="207,46.1 207,33.4 223.5,33.4 223.5,46.1 		"/>
		<line class="st3" x1="215.2" y1="33.4" x2="215.2" y2="46.4"/>
		<line class="st3" x1="207" y1="39" x2="223.5" y2="39"/>
	</g>
	<g>
		<polyline class="st2" points="240.7,46.1 240.7,33.4 257.2,33.4 257.2,46.1 		"/>
		<line class="st3" x1="249" y1="33.4" x2="249" y2="46.4"/>
		<line class="st3" x1="240.7" y1="39" x2="257.2" y2="39"/>
	</g>
</g>
<g>
	<polyline class="st2" points="131.1,78.4 131.1,65.6 147.6,65.6 147.6,78.4 	"/>
	<line class="st3" x1="139.4" y1="65.6" x2="139.4" y2="78.6"/>
	<line class="st3" x1="131.1" y1="71.3" x2="147.6" y2="71.3"/>
</g>
<g>
	<polyline class="st2" points="131.1,46.3 131.1,33.5 147.6,33.5 147.6,46.3 	"/>
	<line class="st3" x1="139.4" y1="33.5" x2="139.4" y2="46.5"/>
	<line class="st3" x1="131.1" y1="39.1" x2="147.6" y2="39.1"/>
</g>
<rect x="194.6" y="237.7" class="st5" width="75" height="15"/>
<rect x="194.6" y="205.8" class="st6" width="75" height="15"/>
<rect x="194.6" y="173.9" class="st6" width="75" height="15"/>
<rect x="194.6" y="142" class="st6" width="75" height="15"/>
<rect x="194.6" y="110.1" class="st6" width="75" height="15"/>
<rect x="194.6" y="78.3" class="st6" width="75" height="15"/>
<rect x="194.6" y="46.4" class="st6" width="75" height="15"/>
<polygon class="st7" points="269.6,29.5 194.6,29.5 196.5,23.3 267.5,23.3 "/>
<polygon class="st7" points="84.2,29.5 9.2,29.5 11.1,23.3 82.1,23.3 "/>
<path class="st2" d="M55.3,52.6"/>
<path class="st2" d="M63,52.6"/>
<g>
	<polyline class="st2" points="71.6,46.4 71.6,33.5 79.4,33.5 79.4,46.4 	"/>
	<line class="st3" x1="71.2" y1="39.1" x2="79.4" y2="39.1"/>
	<polyline class="st2" points="55.3,46.4 55.3,33.5 63,33.5 63,46.4 	"/>
	<line class="st3" x1="55.1" y1="39.1" x2="63.2" y2="39.1"/>
	<polyline class="st2" points="18.5,46.4 18.5,33.5 40.3,33.5 40.3,46.4 	"/>
	<line class="st3" x1="18.5" y1="39.1" x2="40.3" y2="39.1"/>
	<line class="st3" x1="25.8" y1="33.5" x2="25.8" y2="46.4"/>
	<line class="st3" x1="33" y1="33.5" x2="33" y2="46.4"/>
</g>
<g>
	<polyline class="st2" points="71.6,78.5 71.6,65.7 79.4,65.7 79.4,78.5 	"/>
	<line class="st3" x1="71.2" y1="71.3" x2="79.4" y2="71.3"/>
	<polyline class="st2" points="55.3,78.5 55.3,65.7 63,65.7 63,78.5 	"/>
	<line class="st3" x1="55.1" y1="71.3" x2="63.2" y2="71.3"/>
	<polyline class="st2" points="18.5,78.5 18.5,65.7 40.3,65.7 40.3,78.5 	"/>
	<line class="st3" x1="18.5" y1="71.3" x2="40.3" y2="71.3"/>
	<line class="st3" x1="25.8" y1="65.7" x2="25.8" y2="78.5"/>
	<line class="st3" x1="33" y1="65.7" x2="33" y2="78.5"/>
</g>
<g>
	<polyline class="st2" points="71.6,110.1 71.6,97.2 79.4,97.2 79.4,110.1 	"/>
	<line class="st3" x1="71.2" y1="102.8" x2="79.4" y2="102.8"/>
	<polyline class="st2" points="55.3,110.1 55.3,97.2 63,97.2 63,110.1 	"/>
	<line class="st3" x1="55.1" y1="102.8" x2="63.2" y2="102.8"/>
	<polyline class="st2" points="18.5,110.1 18.5,97.2 40.3,97.2 40.3,110.1 	"/>
	<line class="st3" x1="18.5" y1="102.8" x2="40.3" y2="102.8"/>
	<line class="st3" x1="25.8" y1="97.2" x2="25.8" y2="110.1"/>
	<line class="st3" x1="33" y1="97.2" x2="33" y2="110.1"/>
</g>
<g>
	<polyline class="st2" points="71.6,141.8 71.6,128.9 79.4,128.9 79.4,141.8 	"/>
	<line class="st3" x1="71.2" y1="134.6" x2="79.4" y2="134.6"/>
	<polyline class="st2" points="55.3,141.8 55.3,128.9 63,128.9 63,141.8 	"/>
	<line class="st3" x1="55.1" y1="134.6" x2="63.2" y2="134.6"/>
	<polyline class="st2" points="18.5,141.8 18.5,128.9 40.3,128.9 40.3,141.8 	"/>
	<line class="st3" x1="18.5" y1="134.6" x2="40.3" y2="134.6"/>
	<line class="st3" x1="25.8" y1="128.9" x2="25.8" y2="141.8"/>
	<line class="st3" x1="33" y1="128.9" x2="33" y2="141.8"/>
</g>
<g>
	<polyline class="st2" points="71.6,173.7 71.6,160.8 79.4,160.8 79.4,173.7 	"/>
	<line class="st3" x1="71.2" y1="166.5" x2="79.4" y2="166.5"/>
	<polyline class="st2" points="55.3,173.7 55.3,160.8 63,160.8 63,173.7 	"/>
	<line class="st3" x1="55.1" y1="166.5" x2="63.2" y2="166.5"/>
	<polyline class="st2" points="18.5,173.7 18.5,160.8 40.3,160.8 40.3,173.7 	"/>
	<line class="st3" x1="18.5" y1="166.5" x2="40.3" y2="166.5"/>
	<line class="st3" x1="25.8" y1="160.8" x2="25.8" y2="173.7"/>
	<line class="st3" x1="33" y1="160.8" x2="33" y2="173.7"/>
</g>
<g>
	<polyline class="st2" points="71.6,205.8 71.6,192.9 79.4,192.9 79.4,205.8 	"/>
	<line class="st3" x1="71.2" y1="198.5" x2="79.4" y2="198.5"/>
	<polyline class="st2" points="55.3,205.8 55.3,192.9 63,192.9 63,205.8 	"/>
	<line class="st3" x1="55.1" y1="198.5" x2="63.2" y2="198.5"/>
	<polyline class="st2" points="18.5,205.8 18.5,192.9 40.3,192.9 40.3,205.8 	"/>
	<line class="st3" x1="18.5" y1="198.5" x2="40.3" y2="198.5"/>
	<line class="st3" x1="25.8" y1="192.9" x2="25.8" y2="205.8"/>
	<line class="st3" x1="33" y1="192.9" x2="33" y2="205.8"/>
</g>
<g>
	<rect x="9.2" y="237.7" class="st5" width="75" height="15"/>
	<rect x="9.2" y="205.8" class="st6" width="75" height="15"/>
	<rect x="9.2" y="173.9" class="st6" width="75" height="15"/>
	<rect x="9.2" y="142" class="st6" width="75" height="15"/>
	<rect x="9.2" y="110.1" class="st6" width="75" height="15"/>
	<rect x="9.2" y="78.3" class="st6" width="75" height="15"/>
	<rect x="9.2" y="46.4" class="st6" width="75" height="15"/>
</g>
<g>
	<rect x="166.2" y="193" class="st2" width="21.8" height="19.2"/>
	<line class="st3" x1="166.2" y1="198.7" x2="188" y2="198.7"/>
	<line class="st3" x1="173.5" y1="193" x2="173.5" y2="212.2"/>
	<line class="st3" x1="180.8" y1="193" x2="180.8" y2="212.2"/>
</g>
<g>
	<rect x="166.2" y="161.2" class="st2" width="21.8" height="19.2"/>
	<line class="st3" x1="166.2" y1="166.8" x2="188" y2="166.8"/>
	<line class="st3" x1="173.5" y1="161.2" x2="173.5" y2="180.3"/>
	<line class="st3" x1="180.8" y1="161.2" x2="180.8" y2="180.3"/>
</g>
<g>
	<rect x="166.2" y="129.3" class="st2" width="21.8" height="19.2"/>
	<line class="st3" x1="166.2" y1="135" x2="188" y2="135"/>
	<line class="st3" x1="173.5" y1="129.3" x2="173.5" y2="148.5"/>
	<line class="st3" x1="180.8" y1="129.3" x2="180.8" y2="148.5"/>
</g>
<g>
	<rect x="166.2" y="97.5" class="st2" width="21.8" height="19.2"/>
	<line class="st3" x1="166.2" y1="103.1" x2="188" y2="103.1"/>
	<line class="st3" x1="173.5" y1="97.5" x2="173.5" y2="116.6"/>
	<line class="st3" x1="180.8" y1="97.5" x2="180.8" y2="116.6"/>
</g>
<g>
	<rect x="166.2" y="65.6" class="st2" width="21.8" height="19.2"/>
	<line class="st3" x1="166.2" y1="71.3" x2="188" y2="71.3"/>
	<line class="st3" x1="173.5" y1="65.6" x2="173.5" y2="84.8"/>
	<line class="st3" x1="180.8" y1="65.6" x2="180.8" y2="84.8"/>
</g>
<g>
	<rect x="166.2" y="33.5" class="st2" width="21.8" height="19.2"/>
	<line class="st3" x1="166.2" y1="39.1" x2="188" y2="39.1"/>
	<line class="st3" x1="173.5" y1="33.5" x2="173.5" y2="52.6"/>
	<line class="st3" x1="180.8" y1="33.5" x2="180.8" y2="52.6"/>
</g>
<g>
	<rect x="92.5" y="208.8" class="st2" width="16.5" height="19.2"/>
	<line class="st3" x1="100.7" y1="208.8" x2="100.7" y2="228.2"/>
	<line class="st3" x1="92.5" y1="214.4" x2="109" y2="214.4"/>
</g>
<g>
	<rect x="92.5" y="176.9" class="st2" width="16.5" height="19.2"/>
	<line class="st3" x1="100.7" y1="176.9" x2="100.7" y2="196.3"/>
	<line class="st3" x1="92.5" y1="182.6" x2="109" y2="182.6"/>
</g>
<g>
	<rect x="92.5" y="145" class="st2" width="16.5" height="19.2"/>
	<line class="st3" x1="100.7" y1="145" x2="100.7" y2="164.4"/>
	<line class="st3" x1="92.5" y1="150.7" x2="109" y2="150.7"/>
</g>
<g>
	<rect x="92.5" y="113.1" class="st2" width="16.5" height="19.2"/>
	<line class="st3" x1="100.7" y1="113.1" x2="100.7" y2="132.5"/>
	<line class="st3" x1="92.5" y1="118.8" x2="109" y2="118.8"/>
</g>
<g>
	<rect x="92.5" y="81.3" class="st2" width="16.5" height="19.2"/>
	<line class="st3" x1="100.7" y1="81.3" x2="100.7" y2="100.7"/>
	<line class="st3" x1="92.5" y1="86.9" x2="109" y2="86.9"/>
</g>
<g>
	<rect x="92.5" y="49.4" class="st2" width="16.5" height="19.2"/>
	<line class="st3" x1="100.7" y1="49.4" x2="100.7" y2="68.8"/>
	<line class="st3" x1="92.5" y1="55" x2="109" y2="55"/>
</g>
<rect x="117.6" y="237.7" class="st5" width="43.6" height="15"/>
<rect x="92.5" y="278.1" class="st8" width="38.8" height="15"/>
<rect x="117.6" y="205.8" class="st6" width="43.6" height="15"/>
<rect x="117.6" y="173.9" class="st6" width="43.6" height="15"/>
<rect x="117.6" y="142" class="st6" width="43.6" height="15"/>
<rect x="117.6" y="110.1" class="st6" width="43.6" height="15"/>
<rect x="117.6" y="78.3" class="st6" width="43.6" height="15"/>
<rect x="117.6" y="46.4" class="st6" width="43.6" height="15"/>
<rect x="117.6" y="14.5" class="st9" width="15.2" height="2.9"/>
<rect x="146" y="14.5" class="st9" width="15.1" height="2.9"/>
<rect x="117.6" y="26.3" class="st9" width="43.6" height="2.9"/>
<polygon class="st2" points="139.4,19 142.7,13.2 136,13.2 "/>
<polyline class="st6" points="157.1,14.5 161.2,14.5 161.2,29.5 117.6,29.5 117.6,14.5 121.9,14.5 "/>
<line class="st3" x1="71.2" y1="263.6" x2="79.4" y2="263.6"/>
<line class="st3" x1="162.1" y1="263.6" x2="170.3" y2="263.6"/>
<rect x="207" y="257.8" class="st2" width="16.5" height="19.2"/>
<rect x="71.6" y="257.9" class="st2" width="7.8" height="19.2"/>
<rect x="162.5" y="257.9" class="st2" width="7.8" height="19.2"/>
<rect x="55.3" y="257.9" class="st2" width="7.8" height="19.2"/>
<line class="st3" x1="55.1" y1="263.6" x2="63.2" y2="263.6"/>
<g>
	<rect x="9.5" y="218.2" class="st10" width="74.3" height="2.3"/>
	<rect x="9.5" y="186.3" class="st10" width="74.3" height="2.3"/>
	<rect x="9.5" y="154.4" class="st10" width="74.3" height="2.3"/>
	<rect x="9.5" y="122.5" class="st10" width="74.3" height="2.3"/>
	<rect x="9.5" y="90.6" class="st10" width="74.3" height="2.3"/>
	<rect x="9.5" y="58.7" class="st10" width="74.3" height="2.3"/>
	<rect x="9.5" y="250.1" class="st11" width="74.3" height="2.3"/>
</g>
<g>
	<rect x="194.9" y="218.2" class="st10" width="74.3" height="2.3"/>
	<rect x="194.9" y="186.3" class="st10" width="74.3" height="2.3"/>
	<rect x="194.9" y="154.4" class="st10" width="74.3" height="2.3"/>
	<rect x="194.9" y="122.5" class="st10" width="74.3" height="2.3"/>
	<rect x="194.9" y="90.6" class="st10" width="74.3" height="2.3"/>
	<rect x="194.9" y="58.7" class="st10" width="74.3" height="2.3"/>
	<rect x="194.9" y="250.1" class="st11" width="74.3" height="2.3"/>
</g>
<g>
	<rect x="118" y="218.2" class="st10" width="42.8" height="2.3"/>
	<rect x="118" y="186.3" class="st10" width="42.8" height="2.3"/>
	<rect x="118" y="154.4" class="st10" width="42.8" height="2.3"/>
	<rect x="118" y="122.5" class="st10" width="42.8" height="2.3"/>
	<rect x="118" y="90.6" class="st10" width="42.8" height="2.3"/>
	<rect x="118" y="58.7" class="st10" width="42.8" height="2.3"/>
	<rect x="118" y="250.1" class="st11" width="42.8" height="2.3"/>
</g>
<g>
	<g>
		<path class="st6" d="M276.5,251.3v1.6c3.1-0.2,5.2-0.5,5.2-0.8"/>
		<g>
			<path class="st6" d="M276.5,219.5v1.6c3.1-0.2,5.2-0.5,5.2-0.8"/>
		</g>
		<path class="st6" d="M276.5,248.3v1.6c3.1-0.2,5.2-0.5,5.2-0.8"/>
		<path class="st6" d="M276.5,235.8v1.6c3.1-0.2,5.2-0.5,5.2-0.8"/>
		<path class="st12" d="M276.5,224v1.6c3.1-0.2,5.2-0.5,5.2-0.8"/>
		<line class="st6" x1="281.7" y1="219.5" x2="281.7" y2="252.2"/>
		<line class="st12" x1="280.6" y1="220.8" x2="280.6" y2="237"/>
	</g>
	<line class="st12" x1="279.1" y1="220.8" x2="279.1" y2="237.5"/>
</g>
<g>
	<g>
		<path class="st6" d="M276.5,219.6v1.6c3.1-0.2,5.2-0.5,5.2-0.8"/>
		<g>
			<path class="st6" d="M276.5,187.9v1.6c3.1-0.2,5.2-0.5,5.2-0.8"/>
		</g>
		<path class="st6" d="M276.5,216.7v1.6c3.1-0.2,5.2-0.5,5.2-0.8"/>
		<path class="st6" d="M276.5,204.2v1.6c3.1-0.2,5.2-0.5,5.2-0.8"/>
		<path class="st12" d="M276.5,192.3v1.6c3.1-0.2,5.2-0.5,5.2-0.8"/>
		<line class="st6" x1="281.7" y1="187.9" x2="281.7" y2="220.5"/>
		<line class="st12" x1="280.6" y1="189.1" x2="280.6" y2="205.4"/>
	</g>
	<line class="st12" x1="279.1" y1="189.1" x2="279.1" y2="205.8"/>
</g>
<g>
	<g>
		<path class="st6" d="M276.5,188v1.6c3.1-0.2,5.2-0.5,5.2-0.8"/>
		<g>
			<path class="st6" d="M276.5,156.2v1.6c3.1-0.2,5.2-0.5,5.2-0.8"/>
		</g>
		<path class="st6" d="M276.5,185v1.6c3.1-0.2,5.2-0.5,5.2-0.8"/>
		<path class="st6" d="M276.5,172.5v1.6c3.1-0.2,5.2-0.5,5.2-0.8"/>
		<path class="st12" d="M276.5,160.6v1.6c3.1-0.2,5.2-0.5,5.2-0.8"/>
		<line class="st6" x1="281.7" y1="156.2" x2="281.7" y2="188.8"/>
		<line class="st12" x1="280.6" y1="157.5" x2="280.6" y2="173.7"/>
	</g>
	<line class="st12" x1="279.1" y1="157.5" x2="279.1" y2="174.1"/>
</g>
<g>
	<g>
		<path class="st6" d="M276.5,156.3v1.6c3.1-0.2,5.2-0.5,5.2-0.8"/>
		<g>
			<path class="st6" d="M276.5,124.5v1.6c3.1-0.2,5.2-0.5,5.2-0.8"/>
		</g>
		<path class="st6" d="M276.5,153.3v1.6c3.1-0.2,5.2-0.5,5.2-0.8"/>
		<path class="st6" d="M276.5,140.8v1.6c3.1-0.2,5.2-0.5,5.2-0.8"/>
		<path class="st12" d="M276.5,129v1.6c3.1-0.2,5.2-0.5,5.2-0.8"/>
		<line class="st6" x1="281.7" y1="124.5" x2="281.7" y2="157.2"/>
		<line class="st12" x1="280.6" y1="125.8" x2="280.6" y2="142"/>
	</g>
	<line class="st12" x1="279.1" y1="125.8" x2="279.1" y2="142.4"/>
</g>
<g>
	<g>
		<path class="st6" d="M276.5,124.2v1.6c3.1-0.2,5.2-0.5,5.2-0.8"/>
		<g>
			<path class="st6" d="M276.5,92.4V94c3.1-0.2,5.2-0.5,5.2-0.8"/>
		</g>
		<path class="st6" d="M276.5,121.2v1.6c3.1-0.2,5.2-0.5,5.2-0.8"/>
		<path class="st6" d="M276.5,108.7v1.6c3.1-0.2,5.2-0.5,5.2-0.8"/>
		<path class="st12" d="M276.5,96.9v1.6c3.1-0.2,5.2-0.5,5.2-0.8"/>
		<line class="st6" x1="281.7" y1="92.4" x2="281.7" y2="125.1"/>
		<line class="st12" x1="280.6" y1="93.7" x2="280.6" y2="109.9"/>
	</g>
	<line class="st12" x1="279.1" y1="93.7" x2="279.1" y2="110.3"/>
</g>
<g>
	<g>
		<path class="st6" d="M276.5,92.5v1.6c3.1-0.2,5.2-0.5,5.2-0.8"/>
		<g>
			<path class="st6" d="M276.5,60.8v1.6c3.1-0.2,5.2-0.5,5.2-0.8"/>
		</g>
		<path class="st6" d="M276.5,89.6v1.6c3.1-0.2,5.2-0.5,5.2-0.8"/>
		<path class="st6" d="M276.5,77.1v1.6c3.1-0.2,5.2-0.5,5.2-0.8"/>
		<path class="st12" d="M276.5,65.2v1.6c3.1-0.2,5.2-0.5,5.2-0.8"/>
		<line class="st6" x1="281.7" y1="60.8" x2="281.7" y2="93.4"/>
		<line class="st12" x1="280.6" y1="62" x2="280.6" y2="78.3"/>
	</g>
	<line class="st12" x1="279.1" y1="62" x2="279.1" y2="78.7"/>
</g>
<g>
	<g>
		<path class="st6" d="M276.5,60.5v1.6c3.1-0.2,5.2-0.5,5.2-0.8"/>
		<g>
			<path class="st6" d="M276.5,28.8v1.6c3.1-0.2,5.2-0.5,5.2-0.8"/>
		</g>
		<path class="st6" d="M276.5,57.6v1.6c3.1-0.2,5.2-0.5,5.2-0.8"/>
		<path class="st6" d="M276.5,45.1v1.6c3.1-0.2,5.2-0.5,5.2-0.8"/>
		<path class="st12" d="M276.5,33.2v1.6c3.1-0.2,5.2-0.5,5.2-0.8"/>
		<line class="st6" x1="281.7" y1="10.6" x2="281.7" y2="61.4"/>
		<line class="st12" x1="280.6" y1="30" x2="280.6" y2="46.3"/>
	</g>
	<line class="st12" x1="279.1" y1="30" x2="279.1" y2="46.7"/>
</g>
<path class="st6" d="M276.5,26.1v1.6c3.1-0.2,5.2-0.5,5.2-0.8"/>
<path class="st6" d="M281.7,10.8c0-0.3-2.1-0.6-5.2-0.8"/>
<polygon class="st13" points="121.6,15.1 122.3,15.1 122.3,15.1 "/>
<polygon class="st14" points="122.3,15.1 124.2,15.1 124.2,15.1 "/>
<path class="st15" d="M125.9,9.6"/>
<polyline class="st15" points="149.7,4.7 274.6,4.7 277.2,9.6 153.6,9.6 "/>
<polyline class="st15" points="125.9,9.6 0.6,9.6 2.7,4.7 129.1,4.7 "/>
<path class="st16" d="M139.5,4.7c7,0,12.9,4.5,15.1,10.8h3.3c-2.4-7.9-9.7-13.7-18.4-13.7s-16,5.8-18.4,13.7h3.3
	C126.6,9.2,132.5,4.7,139.5,4.7z"/>
<path class="st13" d="M139.5,2.1c-8,0-15.2,5.2-17.8,12.7h35.6C154.7,7.3,147.5,2.1,139.5,2.1z"/>
<path class="st14" d="M139.5,2.1c8,0,15.2,5.2,17.8,12.7h0.8c-2.6-7.9-10.2-13.5-18.6-13.5c-8.4,0-16,5.5-18.6,13.5h0.8
	C124.3,7.3,131.5,2.1,139.5,2.1z"/>
</svg>
